<?xml version="1.0" standalone="no"?>
<!DOCTYPE svg PUBLIC "-//W3C//DTD SVG 20010904//EN"
 "http://www.w3.org/TR/2001/REC-SVG-20010904/DTD/svg10.dtd">
<svg version="1.0" xmlns="http://www.w3.org/2000/svg"
 width="600.000000pt" height="600.000000pt" viewBox="0 0 600.000000 600.000000"
 preserveAspectRatio="xMidYMid meet">
<metadata>
Created by potrace 1.11, written by Peter Selinger 2001-2013
</metadata>
<g transform="translate(0.000000,600.000000) scale(0.100000,-0.100000)"
fill="#000000" stroke="none">
<path d="M530 5482 c-7 -3 -10 -839 -10 -2482 l0 -2478 2480 0 2480 0 0 22 c5
199 0 4929 -4 4934 -7 6 -4927 10 -4946 4z m4628 -329 c5 -8 8 -4259 3 -4305
-1 -5 -973 -8 -2161 -8 l-2160 0 -1 38 c0 49 0 4230 0 4262 l1 25 2155 0
c1619 0 2158 -3 2163 -12z"/>
<path d="M1770 4156 c-3 -348 0 -2349 3 -2352 4 -4 529 -7 700 -5 l37 1 0 350
c0 193 3 350 7 350 5 0 163 -158 353 -351 l345 -351 470 1 c259 0 488 0 510 0
l40 1 -2 1183 c0 650 -2 1191 -2 1203 -1 21 -2 21 -348 20 l-348 -1 -5 -864
-5 -864 -65 68 c-36 37 -70 73 -76 79 -53 56 -245 295 -310 387 -153 215 -318
505 -424 749 -23 52 -45 104 -50 115 -42 91 -85 246 -89 321 -1 8 -110 11
-371 11 l-370 -1 0 -50z"/>
</g>
</svg>
